<?xml version="1.0" encoding="UTF-8" standalone="no"?>
<!-- Created with Inkscape (http://www.inkscape.org/) -->

<svg
   xmlns:dc="http://purl.org/dc/elements/1.1/"
   xmlns:cc="http://creativecommons.org/ns#"
   xmlns:rdf="http://www.w3.org/1999/02/22-rdf-syntax-ns#"
   xmlns:svg="http://www.w3.org/2000/svg"
   xmlns="http://www.w3.org/2000/svg"
   xmlns:sodipodi="http://sodipodi.sourceforge.net/DTD/sodipodi-0.dtd"
   xmlns:inkscape="http://www.inkscape.org/namespaces/inkscape"
   width="200mm"
   height="200mm"
   viewBox="0 0 708.66142 708.66141"
   id="svg2"
   version="1.1"
   inkscape:version="0.91 r13725"
   sodipodi:docname="ic_app.svg"
   inkscape:export-filename="C:\Users\dell-laptop\AndroidStudioProjects\hookedonplay\DecoViewSample\art\ic_app_512.png"
   inkscape:export-xdpi="65.019997"
   inkscape:export-ydpi="65.019997">
  <defs
     id="defs4" />
  <sodipodi:namedview
     id="base"
     pagecolor="#ffffff"
     bordercolor="#666666"
     borderopacity="1.0"
     inkscape:pageopacity="0.0"
     inkscape:pageshadow="2"
     inkscape:zoom="0.35"
     inkscape:cx="-52.142857"
     inkscape:cy="520"
     inkscape:document-units="px"
     inkscape:current-layer="layer1"
     showgrid="false"
     inkscape:window-width="1536"
     inkscape:window-height="801"
     inkscape:window-x="-8"
     inkscape:window-y="-8"
     inkscape:window-maximized="1" />
  <metadata
     id="metadata7">
    <rdf:RDF>
      <cc:Work
         rdf:about="">
        <dc:format>image/svg+xml</dc:format>
        <dc:type
           rdf:resource="http://purl.org/dc/dcmitype/StillImage" />
        <dc:title></dc:title>
      </cc:Work>
    </rdf:RDF>
  </metadata>
  <g
     inkscape:label="Layer 1"
     inkscape:groupmode="layer"
     id="layer1"
     transform="translate(0,-343.70079)">
    <g
       id="g4170"
       transform="matrix(1.2254794,0,0,1.2254794,-180.18056,198.97611)">
      <path
         transform="matrix(-0.76018537,-0.64970624,0.64970624,-0.76018537,0,0)"
         sodipodi:open="true"
         d="m -360.649,-28.739388 a 231.42857,240 0 0 1 -148.63342,224.115548 231.42857,240 0 0 1 -254.98267,-63.75781 231.42857,240 0 0 1 -33.81015,-269.73514 231.42857,240 0 0 1 230.79103,-129.24136"
         sodipodi:end="4.8197268"
         sodipodi:start="0"
         sodipodi:ry="240"
         sodipodi:rx="231.42857"
         sodipodi:cy="-28.739388"
         sodipodi:cx="-592.07758"
         sodipodi:type="arc"
         id="path4136"
         style="fill:none;fill-opacity:1;stroke:#ff9115;stroke-width:95.40000153;stroke-linecap:round;stroke-miterlimit:4;stroke-dasharray:none;stroke-opacity:1" />
      <path
         transform="matrix(-0.76018537,-0.64970624,0.64970624,-0.76018537,0,0)"
         sodipodi:open="true"
         d="M -460.24467,-28.327106 A 132.2892,137.1888 0 0 1 -545.20651,99.78182 132.2892,137.1888 0 0 1 -690.9597,63.33658 132.2892,137.1888 0 0 1 -710.28626,-90.849413 132.2892,137.1888 0 0 1 -578.36149,-164.72636"
         sodipodi:end="4.8197268"
         sodipodi:start="0"
         sodipodi:ry="137.1888"
         sodipodi:rx="132.2892"
         sodipodi:cy="-28.327106"
         sodipodi:cx="-592.53387"
         sodipodi:type="arc"
         id="path4136-9"
         style="fill:none;fill-opacity:1;stroke:#404040;stroke-width:71.3239975;stroke-linecap:round;stroke-miterlimit:4;stroke-dasharray:none;stroke-opacity:1" />
      <path
         transform="matrix(-0.76018537,-0.64970624,0.64970624,-0.76018537,0,0)"
         sodipodi:open="true"
         d="m -536.28136,-29.267256 a 57.887222,60.031193 0 0 1 -37.17767,56.058016 57.887222,60.031193 0 0 1 -63.77881,-15.94774 57.887222,60.031193 0 0 1 -8.45693,-67.468841 57.887222,60.031193 0 0 1 57.72775,-32.327138"
         sodipodi:end="4.8197268"
         sodipodi:start="0"
         sodipodi:ry="60.031193"
         sodipodi:rx="57.887222"
         sodipodi:cy="-29.267256"
         sodipodi:cx="-594.16858"
         sodipodi:type="arc"
         id="path4136-9-7"
         style="fill:none;fill-opacity:1;stroke:#808080;stroke-width:54.72642517;stroke-linecap:round;stroke-miterlimit:4;stroke-dasharray:none;stroke-opacity:1" />
    </g>
  </g>
</svg>
